<?xml version="1.0" encoding="utf-8"?>
<!-- Generator: Adobe Illustrator 19.0.1, SVG Export Plug-In . SVG Version: 6.00 Build 0)  -->
<svg version="1.1" id="Layer_1" xmlns="http://www.w3.org/2000/svg" xmlns:xlink="http://www.w3.org/1999/xlink" x="0px" y="0px"
	 viewBox="-264.2 80.5 390.6 199.9" style="enable-background:new -264.2 80.5 390.6 199.9;" xml:space="preserve">
<style type="text/css">
	.st0{fill:#231F20;}
	.st1{fill:none;stroke:#231F20;stroke-width:3.080000e-002;stroke-miterlimit:3.8637;}
	.st2{fill:none;stroke:#231F20;stroke-width:6.170000e-002;stroke-miterlimit:3.8637;}
	.st3{fill:none;stroke:#FFFFFF;stroke-width:6.170000e-002;stroke-miterlimit:3.8637;}
</style>
<g>
	<g>
		<g>
			<path class="st0" d="M-65.6,107.5c0.2,1.1,4.2,4.7,5.3,6.4c1.1,1.8,8.7-0.4,11.5,1.8c0,0,6.2,3.3,1.3,8.2
				c-0.9,0.9-5.2-1.4-14,1.1c-1.5,0.4-6.7-0.1-7.3,5.1c-0.2,1.8-1.1,10,6,10c1.5,0,6,1.1,4.4-4.9c0,0,0.7-3,8.4,0.9
				c0.9,0.4,12.1,7.1,22.6,5.3c1.3-0.2,4.4-0.6,9.8-4.7c0,0,19,25.8,43.2,22.4c1.6-0.2,14.7-5.3,23,8.6c0.7,1.1,4.8,29.8,31.7,43.2
				c0.9,0.4-1.1,14.1,3.5,21.1c0.9,1.3,3.3,2.9,7.1,0.7c1.1-0.7-1-4,3.3-9.7l-4.2-17.7c0,0-13.1-6.2-11.3-17.3
				c0.2-1.3-0.1-24.4-8.2-34.1c-1.1-1.3,16.9-10,20.2-33c0.2-1.6,7.5-12.5,22.4-23.7c0,0,10-11.2-7.7-8.6
				c-1.6,0.2-15.1,11.9-19.5,33.9c-0.2,1.1-8.5,28-30.8,22.4c-0.9-0.2-15.7-1-28.8-12c-1.3-1.1-22.9-20.9-47.2-34.8
				c-1.5-0.9-10.2-7.8-19.7-7.8c-1.3,0,0.7-2.4-2.9-4.2c-1.8-0.9-0.7,1.6-3.3,2.7c-2.7,1.1-2.2-1.3-2.2-1.3l-2,3.5
				c0,0-6.7,2.5-7.3,5.3c-0.2,1.1,0.2,1.8-1.5,3.3C-59.8,99.5-65.8,106.4-65.6,107.5"/>
		</g>
		<g>
			<path class="st1" d="M-65.6,107.5c0.2,1.1,4.2,4.7,5.3,6.4c1.1,1.8,8.7-0.4,11.5,1.8c0,0,6.2,3.3,1.3,8.2
				c-0.9,0.9-5.2-1.4-14,1.1c-1.5,0.4-6.7-0.1-7.3,5.1c-0.2,1.8-1.1,10,6,10c1.5,0,6,1.1,4.4-4.9c0,0,0.7-3,8.4,0.9
				c0.9,0.4,12.1,7.1,22.6,5.3c1.3-0.2,4.4-0.6,9.8-4.7c0,0,19,25.8,43.2,22.4c1.6-0.2,14.7-5.3,23,8.6c0.7,1.1,4.8,29.8,31.7,43.2
				c0.9,0.4-1.1,14.1,3.5,21.1c0.9,1.3,3.3,2.9,7.1,0.7c1.1-0.7-1-4,3.3-9.7l-4.2-17.7c0,0-13.1-6.2-11.3-17.3
				c0.2-1.3-0.1-24.4-8.2-34.1c-1.1-1.3,16.9-10,20.2-33c0.2-1.6,7.5-12.5,22.4-23.7c0,0,10-11.2-7.7-8.6
				c-1.6,0.2-15.1,11.9-19.5,33.9c-0.2,1.1-8.5,28-30.8,22.4c-0.9-0.2-15.7-1-28.8-12c-1.3-1.1-22.9-20.9-47.2-34.8
				c-1.5-0.9-10.2-7.8-19.7-7.8c-1.3,0,0.7-2.4-2.9-4.2c-1.8-0.9-0.7,1.6-3.3,2.7c-2.7,1.1-2.2-1.3-2.2-1.3l-2,3.5
				c0,0-6.7,2.5-7.3,5.3c-0.2,1.1,0.2,1.8-1.5,3.3C-59.8,99.5-65.8,106.4-65.6,107.5z"/>
		</g>
	</g>
	<path class="st0" d="M-186.1,270.3c0,2.6,2.1,4.7,4.6,4.7h49.6c2.6,0,4.7-2.1,4.7-4.7v-83.8c0-2.6-2.1-4.7-4.7-4.7h-19.7v76
		c0,2.6-2.1,4.7-4.6,4.7c-2.6,0-4.7-2.1-4.7-4.7v-76h-20.6c-2.6,0-4.6,2.1-4.6,4.7V270.3"/>
	<g>
		<g>
			<path class="st2" d="M-186.1,270.3c0,2.6,2.1,4.7,4.6,4.7h49.6c2.6,0,4.7-2.1,4.7-4.7v-83.8c0-2.6-2.1-4.7-4.7-4.7h-19.7v76
				c0,2.6-2.1,4.7-4.6,4.7c-2.6,0-4.7-2.1-4.7-4.7v-76h-20.6c-2.6,0-4.6,2.1-4.6,4.7V270.3z"/>
		</g>
	</g>
	<path class="st0" d="M-28.8,186.6c0-2.6-2.1-4.7-4.6-4.7h-80.7c-2.6,0-4.6,2.1-4.6,4.7v83.8c0,2.6,2.1,4.7,4.6,4.7H-99
		c2.6,0,4.7-2.1,4.7-4.7V199c0-2.6,2.1-4.6,4.6-4.6c2.6,0,4.6,2.1,4.6,4.6v71.4c0,2.6,2.1,4.7,4.7,4.7h14.2c2.6,0,4.6-2.1,4.6-4.7
		v-71.4c0-2.6,2.1-4.6,4.7-4.6c2.6,0,4.6,2.1,4.6,4.6v71.5c0,2.6,2.2,4.7,4.8,4.7h14.2c2.6,0,4.6-2.1,4.6-4.7L-28.8,186.6"/>
	<g>
		<g>
			<path class="st2" d="M-28.8,186.6c0-2.6-2.1-4.7-4.6-4.7h-80.7c-2.6,0-4.6,2.1-4.6,4.7v83.8c0,2.6,2.1,4.7,4.6,4.7H-99
				c2.6,0,4.7-2.1,4.7-4.7V199c0-2.6,2.1-4.6,4.6-4.6c2.6,0,4.6,2.1,4.6,4.6v71.4c0,2.6,2.1,4.7,4.7,4.7h14.2c2.6,0,4.6-2.1,4.6-4.7
				v-71.4c0-2.6,2.1-4.6,4.7-4.6c2.6,0,4.6,2.1,4.6,4.6v71.5c0,2.6,2.2,4.7,4.8,4.7h14.2c2.6,0,4.6-2.1,4.6-4.7L-28.8,186.6z"/>
		</g>
	</g>
	<path class="st0" d="M-200.5,181.9h-48.7c-2.6,0-4.7,2.1-4.7,4.7V275h26.1v-19.7c0-2.6,2.1-4.7,4.7-4.7h22.6c2.6,0,4.6-2.1,4.6-4.7
		v-59.4C-195.9,184-197.9,181.9-200.5,181.9z M-218.5,235.8c0,2.6-2.1,4.7-4.6,4.7c-2.6,0-4.7-2.1-4.7-4.7v-38.6
		c0-2.6,2.1-4.7,4.7-4.7c2.6,0,4.6,2.1,4.6,4.7V235.8z"/>
	<path class="st0" d="M13.5,254l0,16.4c0,2.6,2.1,4.7,4.7,4.7h15.9c2.6,0,4.6-2.1,4.6-4.7v-83.8c0-2.6-2.1-4.7-4.6-4.7h-49.6
		c-2.6,0-4.6,2.1-4.6,4.7v83.8c0,2.6,2.1,4.7,4.6,4.7h15.1c2.6,0,4.8-2.1,4.8-4.7l0-16.4c0-2.6,2.1-4.6,4.7-4.6
		c2.6,0,4.6,2.1,4.6,4.6L13.5,254 M13.7,235.9c0,2.6-2.1,4.7-4.6,4.7c-2.6,0-4.7-2.1-4.7-4.7L4.2,199c0-2.6,2.1-4.6,4.7-4.6
		c2.6,0,4.6,2.1,4.6,4.6L13.7,235.9z"/>
	<g>
		<g>
			<path class="st3" d="M13.5,254l0,16.4c0,2.6,2.1,4.7,4.7,4.7h15.9c2.6,0,4.6-2.1,4.6-4.7v-83.8c0-2.6-2.1-4.7-4.6-4.7h-49.6
				c-2.6,0-4.6,2.1-4.6,4.7v83.8c0,2.6,2.1,4.7,4.6,4.7h15.1c2.6,0,4.8-2.1,4.8-4.7l0-16.4c0-2.6,2.1-4.6,4.7-4.6
				c2.6,0,4.6,2.1,4.6,4.6L13.5,254z M13.7,235.9c0,2.6-2.1,4.7-4.6,4.7c-2.6,0-4.7-2.1-4.7-4.7L4.2,199c0-2.6,2.1-4.6,4.7-4.6
				c2.6,0,4.6,2.1,4.6,4.6L13.7,235.9z"/>
		</g>
	</g>
</g>
</svg>
