<?xml version="1.0" encoding="utf-8"?>
<!-- Generator: Adobe Illustrator 16.0.0, SVG Export Plug-In . SVG Version: 6.00 Build 0)  -->
<!DOCTYPE svg PUBLIC "-//W3C//DTD SVG 1.1//EN" "http://www.w3.org/Graphics/SVG/1.1/DTD/svg11.dtd">
<svg version="1.1" id="Layer_1" xmlns="http://www.w3.org/2000/svg" xmlns:xlink="http://www.w3.org/1999/xlink" x="0px" y="0px"
	 width="2500px" height="1200px" viewBox="0 0 1200 1200" enable-background="new 0 0 1200 1200" xml:space="preserve">
<g>
	<polygon points="459.688,612.363 576.626,300.542 502.922,300.542 385.984,612.363 	"/>
	<path d="M201.458,683.123c0,9.341,7.197,15.702,16.305,15.702c9.103,0,16.305-6.404,16.305-15.702
		c0-9.335-7.166-15.733-16.305-15.733C208.617,667.39,201.458,673.788,201.458,683.123z M229.113,683.123
		c0,6.323-4.917,11.203-11.352,11.203c-6.521,0-11.356-4.763-11.356-11.203c0-6.436,4.8-11.234,11.356-11.234
		C224.239,671.889,229.113,676.763,229.113,683.123z"/>
	<polygon points="306.062,474.407 297.04,612.363 376.41,612.363 493.36,300.542 419.65,300.542 367.13,440.391 376.182,300.542 
		297.759,300.542 180.815,612.363 254.519,612.363 	"/>
	<path d="M1166.847,487.159c-1.604,0.401-153.385,41.515-328.445,88.947l8.69-24.216H761.11l28.25-75.591h70.865l21.806-58.112
		h-70.865l24.293-65.672h74.639l19.808-51.973H705.014l-77.219,93.548l35.65-93.548h-74.65L472.791,612.363h73.705l49.526-130.398
		l3.393,130.398l106.023-0.23C504.531,666.571,314.063,718.19,314.063,718.19c-107.731,30.243-230.568-35.669-141.748-213.307
		C69.321,625.835-27.834,786.77,57.983,860.878c83.155,71.817,187.096,29.296,257.966,0.947
		c70.871-28.351,854.202-368.521,854.202-368.521C1177.711,489.525,1176.299,484.798,1166.847,487.159z M667.808,429.052
		l111.438-122.352L672.534,591.573L667.808,429.052z"/>
	<path d="M958.659,331.018c9.102,0,16.304-6.402,16.304-15.695c0.006-9.329-7.153-15.732-16.304-15.732
		c-9.146,0-16.306,6.404-16.306,15.732C942.354,324.658,949.558,331.018,958.659,331.018z M958.659,304.094
		c6.477,0,11.355,4.874,11.355,11.234c0,6.324-4.916,11.204-11.355,11.204c-6.521,0-11.357-4.764-11.357-11.204
		C947.302,308.894,952.102,304.094,958.659,304.094z"/>
	<path d="M211.088,674.667v16.918h4.271v-7.202h0.718l3.89,7.202h4.911l-4.339-7.356c2.286-0.109,4.075-1.289,4.075-4.454
		c0-4.081-2.667-5.106-7.123-5.106L211.088,674.667L211.088,674.667z M220.122,679.35c0,1.759-0.835,2.14-2.323,2.14h-2.434v-3.929
		h2.053C218.677,677.561,220.122,677.709,220.122,679.35z"/>
	<path d="M956.263,316.583h0.726l3.884,7.196h4.917l-4.345-7.351c2.285-0.109,4.08-1.291,4.08-4.456
		c0-4.081-2.674-5.106-7.122-5.106h-6.404v16.913h4.266L956.263,316.583L956.263,316.583z M956.263,309.76h2.059
		c1.254,0,2.703,0.154,2.703,1.794c0,1.751-0.842,2.133-2.327,2.133h-0.001h-2.434V309.76z"/>
</g>
</svg>
